<svg xmlns="http://www.w3.org/2000/svg" viewBox="0 0 4096 4096" width="512" height="512">
<defs><filter id="glow" x="-20%" y="-20%" width="140%" height="140%"><feGaussianBlur stdDeviation="18" result="b"/><feMerge><feMergeNode in="b"/><feMergeNode in="SourceGraphic"/></feMerge></filter></defs>
<path d="M2171,837 L2101,827 L2003,829 L1913,843 L1791,885 L1693,941 L1613,1008 L1521,1116 L1461,1226 L1428,1321 L1408,1433 L1405,1521 L1418,1632 L1444,1728 L1477,1807 L1526,1892 L1579,1962 L1658,2049 L1697,2104 L1735,2181 L1758,2261 L1782,2283 L1814,2279 L1828,2259 L1821,2208 L1801,2143 L1752,2045 L1604,1860 L1545,1757 L1505,1642 L1488,1513 L1490,1446 L1502,1370 L1548,1237 L1584,1172 L1633,1106 L1673,1064 L1737,1012 L1800,974 L1852,951 L1960,921 L2088,915 L2208,938 L2312,983 L2412,1054 L2495,1147 L2557,1256 L2586,1337 L2606,1446 L2606,1552 L2586,1663 L2557,1745 L2515,1825 L2475,1887 L2359,2023 L2317,2094 L2291,2155 L2271,2227 L2268,2256 L2282,2279 L2313,2283 L2334,2269 L2361,2182 L2392,2116 L2428,2061 L2534,1941 L2589,1862 L2641,1758 L2667,1679 L2689,1548 L2687,1423 L2671,1331 L2654,1274 L2602,1157 L2566,1100 L2505,1029 L2413,946 L2308,885 L2222,852 L2173,842 Z M1330,2705 L1334,2726 L1347,2736 L1439,2730 L1581,2733 L1661,2743 L1749,2763 L1833,2792 L1895,2822 L2002,2897 L2040,2911 L2082,2904 L2212,2816 L2349,2763 L2458,2740 L2564,2730 L2745,2737 L2765,2718 L2759,2692 L2717,2682 L2588,2677 L2475,2685 L2308,2721 L2306,2726 L2245,2744 L2152,2789 L2192,2750 L2249,2711 L2300,2684 L2383,2652 L2461,2632 L2554,2619 L2715,2620 L2720,2605 L2690,2545 L2681,2540 L2577,2540 L2458,2557 L2402,2574 L2286,2623 L2216,2671 L2211,2669 L2135,2727 L2166,2680 L2225,2619 L2295,2567 L2354,2534 L2487,2488 L2547,2478 L2644,2473 L2648,2462 L2611,2395 L2526,2399 L2432,2416 L2312,2467 L2248,2508 L2170,2572 L2116,2636 L2078,2695 L2050,2762 L2011,2682 L1953,2600 L1916,2561 L1828,2494 L1730,2440 L1651,2412 L1567,2398 L1492,2396 L1481,2401 L1448,2464 L1451,2472 L1550,2478 L1669,2504 L1749,2537 L1865,2615 L1917,2666 L1963,2729 L1889,2672 L1805,2620 L1734,2592 L1733,2587 L1697,2579 L1694,2573 L1594,2548 L1526,2543 L1520,2538 L1415,2540 L1405,2548 L1388,2592 L1375,2608 L1378,2618 L1569,2622 L1701,2648 L1767,2671 L1841,2708 L1892,2742 L1944,2790 L1808,2727 L1645,2688 L1543,2678 L1430,2678 L1350,2687 Z M1818,1310 L1757,1333 L1705,1376 L1688,1405 L1676,1451 L1644,1471 L1602,1521 L1591,1552 L1588,1597 L1609,1663 L1627,1688 L1658,1714 L1651,1753 L1653,1791 L1663,1824 L1688,1866 L1728,1903 L1764,1922 L1800,1932 L1848,1933 L1870,1926 L1902,1926 L1932,1912 L1963,1883 L1981,1845 L1985,1442 L1972,1394 L1945,1356 L1879,1317 Z M2298,1313 L2230,1313 L2187,1333 L2146,1367 L2125,1395 L2113,1426 L2109,2136 L2096,2175 L2061,2198 L2022,2197 L2005,2190 L1983,2166 L1975,2146 L1974,2108 L1964,2092 L1907,2088 L1888,2104 L1887,2159 L1904,2210 L1943,2255 L1993,2279 L2066,2283 L2119,2266 L2164,2227 L2190,2170 L2193,1826 L2216,1814 L2224,1788 L2206,1771 L2180,1769 L2165,1751 L2164,1614 L2181,1592 L2219,1595 L2257,1583 L2280,1562 L2286,1536 L2276,1521 L2262,1516 L2249,1519 L2220,1544 L2191,1541 L2171,1524 L2164,1506 L2164,1448 L2182,1405 L2209,1381 L2245,1367 L2289,1368 L2318,1380 L2346,1404 L2362,1436 L2365,1462 L2348,1494 L2352,1515 L2365,1525 L2379,1526 L2410,1505 L2439,1532 L2455,1573 L2446,1627 L2414,1668 L2396,1671 L2362,1654 L2330,1651 L2310,1655 L2274,1681 L2271,1703 L2287,1720 L2304,1721 L2328,1707 L2350,1708 L2373,1720 L2388,1743 L2390,1775 L2377,1815 L2344,1857 L2304,1876 L2245,1877 L2234,1885 L2230,1914 L2240,1929 L2287,1933 L2321,1926 L2371,1901 L2403,1871 L2422,1845 L2441,1797 L2445,1752 L2438,1714 L2475,1680 L2500,1634 L2507,1606 L2507,1565 L2500,1534 L2484,1502 L2457,1471 L2418,1448 L2410,1409 L2381,1362 L2335,1327 Z M1828,1365 L1867,1371 L1902,1392 L1924,1423 L1932,1455 L1931,1508 L1919,1534 L1883,1544 L1863,1535 L1847,1519 L1830,1516 L1815,1525 L1809,1538 L1815,1561 L1839,1583 L1879,1595 L1913,1592 L1931,1612 L1930,1752 L1913,1770 L1885,1773 L1873,1789 L1874,1804 L1883,1815 L1899,1821 L1928,1815 L1929,1827 L1906,1861 L1889,1873 L1878,1871 L1858,1879 L1797,1875 L1755,1855 L1724,1823 L1705,1775 L1707,1745 L1722,1721 L1758,1706 L1793,1721 L1809,1720 L1825,1703 L1820,1677 L1801,1661 L1768,1651 L1733,1654 L1700,1671 L1689,1667 L1661,1644 L1642,1597 L1645,1555 L1675,1512 L1689,1504 L1715,1526 L1730,1525 L1744,1513 L1747,1493 L1734,1472 L1731,1451 L1753,1401 L1788,1375 Z M2052,1009 L2036,1015 L2027,1055 L1992,1113 L1952,1144 L1900,1164 L1904,1177 L1949,1194 L1995,1231 L2022,1277 L2038,1328 L2047,1334 L2060,1324 L2074,1276 L2102,1230 L2136,1201 L2190,1178 L2196,1170 L2192,1159 L2141,1142 L2107,1115 L2088,1090 L2060,1013 Z M1830,2361 L1835,2382 L1856,2395 L2241,2395 L2260,2383 L2266,2367 L2263,2349 L2242,2334 L1867,2335 L1837,2345 Z M1899,2473 L1902,2493 L1922,2508 L2172,2508 L2187,2501 L2197,2485 L2194,2463 L2176,2449 L1925,2449 L1905,2459 Z M2045,547 L2024,562 L2024,716 L2033,730 L2053,734 L2071,716 L2072,578 L2067,553 Z M1469,788 L1462,808 L1476,830 L1548,905 L1577,905 L1586,894 L1587,876 L1505,785 Z M2624,784 L2600,784 L2511,871 L2508,890 L2519,905 L2545,907 L2625,824 L2634,799 Z M2743,1255 L2747,1277 L2762,1287 L2862,1287 L2872,1283 L2883,1266 L2882,1252 L2873,1240 L2849,1235 L2774,1237 L2747,1246 Z M1355,1259 L1347,1242 L1326,1235 L1257,1237 L1218,1246 L1214,1267 L1235,1287 L1335,1287 L1351,1275 Z" fill="#20e5d6" fill-rule="evenodd" filter="url(#glow)"/>
<path d="M3028,3112 L3002,3141 L2987,3169 L2976,3206 L2974,3288 L2984,3331 L3003,3369 L3027,3395 L3064,3418 L3097,3428 L3233,3431 L3297,3415 L3343,3381 L3363,3353 L3379,3313 L3384,3222 L3366,3158 L3326,3110 L3291,3089 L3249,3077 L3123,3075 L3073,3086 Z M1219,3082 L1211,3096 L1211,3132 L1222,3149 L1419,3154 L1448,3176 L1454,3215 L1249,3218 L1191,3235 L1161,3265 L1147,3312 L1153,3363 L1169,3391 L1197,3415 L1244,3429 L1490,3429 L1514,3419 L1531,3387 L1531,3183 L1521,3143 L1504,3116 L1462,3086 L1421,3076 L1237,3075 Z M2523,2964 L2515,2978 L2519,3424 L2527,3429 L2583,3429 L2594,3416 L2595,3179 L2601,3166 L2629,3151 L2744,3151 L2789,3166 L2816,3202 L2823,3423 L2832,3429 L2889,3428 L2897,3417 L2898,3223 L2890,3172 L2870,3133 L2833,3099 L2776,3078 L2631,3075 L2598,3085 L2593,2970 L2580,2961 Z M1650,3120 L1631,3148 L1618,3191 L1621,3425 L1682,3429 L1692,3421 L1696,3204 L1718,3167 L1761,3151 L1865,3153 L1889,3162 L1911,3181 L1921,3200 L1926,3230 L1927,3420 L1937,3429 L1992,3429 L2001,3422 L2001,3191 L1988,3152 L1956,3112 L1925,3092 L1881,3078 L1754,3075 L1694,3089 Z M2134,3116 L2101,3159 L2084,3218 L2087,3308 L2101,3350 L2118,3376 L2156,3409 L2211,3428 L2424,3427 L2432,3416 L2432,3370 L2421,3358 L2250,3358 L2216,3351 L2193,3338 L2178,3322 L2165,3294 L2162,3230 L2177,3187 L2215,3157 L2241,3151 L2422,3149 L2432,3137 L2428,3083 L2414,3075 L2218,3077 L2176,3089 Z M1067,2964 L1009,2961 L993,2976 L993,3281 L977,3324 L954,3345 L911,3357 L718,3358 L708,3370 L708,3417 L713,3426 L952,3428 L1004,3411 L1044,3377 L1065,3337 L1075,3286 L1075,2976 Z M3067,3185 L3096,3160 L3128,3151 L3227,3151 L3263,3161 L3293,3189 L3305,3219 L3306,3280 L3295,3314 L3267,3344 L3229,3357 L3137,3358 L3096,3348 L3067,3322 L3053,3288 L3052,3226 Z M1226,3313 L1241,3291 L1261,3284 L1442,3284 L1454,3294 L1454,3343 L1434,3359 L1258,3358 L1232,3343 Z" fill="#fff" fill-rule="evenodd"/>
</svg>